<svg width="24" height="24" viewBox="0 0 24 24" fill="none" xmlns="http://www.w3.org/2000/svg">
<rect opacity="0.01" width="24" height="24" rx="5" fill="#D8D8D8"/>
<path fill-rule="evenodd" clip-rule="evenodd" d="M3 21.4091C3 21.635 3.18316 21.8182 3.40909 21.8182H20.5909C20.8168 21.8182 21 21.635 21 21.4091V11.1818C20.9983 11.0576 20.9413 10.9407 20.8445 10.8627L12.2536 3.9082C12.1072 3.78434 11.8928 3.78434 11.7464 3.9082L3.15545 10.8627C3.05873 10.9407 3.00174 11.0576 3 11.1818V21.4091ZM20.1818 11.3782V21H3.81818V11.3782L12 4.75092L20.1818 11.3782Z" fill="#414B5A"/>
<path d="M21 11.1818L21.15 11.1818L21.15 11.1797L21 11.1818ZM20.8445 10.8627L20.7502 10.9793L20.7504 10.9796L20.8445 10.8627ZM12.2536 3.9082L12.1567 4.02274L12.1593 4.02478L12.2536 3.9082ZM11.7464 3.9082L11.8408 4.02481L11.8432 4.02272L11.7464 3.9082ZM3.15545 10.8627L3.24956 10.9796L3.24983 10.9793L3.15545 10.8627ZM3 11.1818L2.85 11.1797V11.1818H3ZM20.1818 21V21.15H20.3318V21H20.1818ZM20.1818 11.3782H20.3318V11.3067L20.2762 11.2616L20.1818 11.3782ZM3.81818 21H3.66818V21.15H3.81818V21ZM3.81818 11.3782L3.72377 11.2616L3.66818 11.3067V11.3782H3.81818ZM12 4.75092L12.0944 4.63436L12 4.55789L11.9056 4.63436L12 4.75092ZM3.40909 21.6682C3.266 21.6682 3.15 21.5522 3.15 21.4091H2.85C2.85 21.7179 3.10031 21.9682 3.40909 21.9682V21.6682ZM20.5909 21.6682H3.40909V21.9682H20.5909V21.6682ZM20.85 21.4091C20.85 21.5522 20.734 21.6682 20.5909 21.6682V21.9682C20.8997 21.9682 21.15 21.7179 21.15 21.4091H20.85ZM20.85 11.1818V21.4091H21.15V11.1818H20.85ZM20.7504 10.9796C20.8124 11.0295 20.8489 11.1044 20.85 11.1839L21.15 11.1797C21.1476 11.0109 21.0701 10.8519 20.9386 10.7459L20.7504 10.9796ZM12.1593 4.02478L20.7502 10.9793L20.9389 10.7462L12.348 3.79161L12.1593 4.02478ZM11.8432 4.02272C11.9337 3.94617 12.0663 3.94617 12.1568 4.02272L12.3505 3.79367C12.1482 3.62252 11.8518 3.62252 11.6495 3.79367L11.8432 4.02272ZM3.24983 10.9793L11.8407 4.02478L11.652 3.79161L3.06107 10.7462L3.24983 10.9793ZM3.14999 11.1839C3.1511 11.1044 3.1876 11.0295 3.24956 10.9796L3.06135 10.7459C2.92985 10.8519 2.85238 11.0109 2.85001 11.1797L3.14999 11.1839ZM3.15 21.4091V11.1818H2.85V21.4091H3.15ZM20.3318 21V11.3782H20.0318V21H20.3318ZM3.81818 21.15H20.1818V20.85H3.81818V21.15ZM3.66818 11.3782V21H3.96818V11.3782H3.66818ZM11.9056 4.63436L3.72377 11.2616L3.9126 11.4948L12.0944 4.86748L11.9056 4.63436ZM20.2762 11.2616L12.0944 4.63436L11.9056 4.86748L20.0874 11.4948L20.2762 11.2616Z" fill="#414B5A"/>
<path d="M16.9091 18.3636H7.09091C6.86497 18.3636 6.68182 18.1804 6.68182 17.9545C6.68182 17.7286 6.86497 17.5454 7.09091 17.5454H16.9091C17.135 17.5454 17.3182 17.7286 17.3182 17.9545C17.3182 18.1804 17.135 18.3636 16.9091 18.3636Z" fill="#414B5A" stroke="#414B5A" stroke-width="0.4"/>
</svg>
