<svg width="24" height="24" viewBox="0 0 24 24" fill="none" xmlns="http://www.w3.org/2000/svg">
<path fill-rule="evenodd" clip-rule="evenodd" d="M12 24C18.6274 24 24 18.6274 24 12C24 5.37258 18.6274 0 12 0C5.37258 0 0 5.37258 0 12C0 18.6274 5.37258 24 12 24Z" fill="#E5E5E5" fill-opacity="0.01"/>
<path fill-rule="evenodd" clip-rule="evenodd" d="M4.31875 21H19.6812C19.8573 21 20 20.8484 20 20.6613V4.33867C20 4.15163 19.8573 4 19.6812 4H4.31875C4.14271 4 4 4.15163 4 4.33867V20.6613C4 20.8484 4.14271 21 4.31875 21ZM19 20H5V5H19V20Z" fill="#414B5A"/>
<path d="M8.2025 8.97059C8.09066 8.97059 8 8.7599 8 8.5C8 8.2401 8.09066 8.02941 8.2025 8.02941H15.7975C15.9093 8.02941 16 8.2401 16 8.5C16 8.7599 15.9093 8.97059 15.7975 8.97059H8.2025Z" fill="#414B5A"/>
<path d="M15.7975 13H8.2025C8.09066 13 8 12.7761 8 12.5C8 12.2239 8.09066 12 8.2025 12H15.7975C15.9093 12 16 12.2239 16 12.5C16 12.7761 15.9093 13 15.7975 13Z" fill="#414B5A"/>
<path d="M15.7975 17H8.2025C8.09066 17 8 16.7761 8 16.5C8 16.2239 8.09066 16 8.2025 16H15.7975C15.9093 16 16 16.2239 16 16.5C16 16.7761 15.9093 17 15.7975 17Z" fill="#414B5A"/>
</svg>
