<svg width="24" height="24" viewBox="0 0 24 24" fill="none" xmlns="http://www.w3.org/2000/svg">
<path d="M2 2.68571C2 2.50385 2.07224 2.32944 2.20084 2.20084C2.32944 2.07224 2.50385 2 2.68571 2H4.74286C4.89581 2.00004 5.04437 2.05122 5.16489 2.14541C5.28541 2.23959 5.37098 2.37136 5.408 2.51977L5.96343 4.74286H21.8857C21.9864 4.74295 22.0858 4.76522 22.1769 4.80807C22.2681 4.85092 22.3486 4.91332 22.4129 4.99082C22.4772 5.06832 22.5236 5.15902 22.5488 5.25648C22.5741 5.35394 22.5776 5.45578 22.5591 5.55474L20.5019 16.5262C20.4725 16.6833 20.3891 16.8252 20.2662 16.9274C20.1432 17.0296 19.9884 17.0856 19.8286 17.0857H7.48571C7.32585 17.0856 7.17106 17.0296 7.04811 16.9274C6.92515 16.8252 6.84176 16.6833 6.81234 16.5262L4.75657 5.57531L4.208 3.37143H2.68571C2.50385 3.37143 2.32944 3.29918 2.20084 3.17059C2.07224 3.04199 2 2.86758 2 2.68571ZM6.25417 6.11429L8.05486 15.7143H19.2594L21.0601 6.11429H6.25417ZM8.85714 17.0857C8.12969 17.0857 7.43204 17.3747 6.91765 17.8891C6.40326 18.4035 6.11429 19.1011 6.11429 19.8286C6.11429 20.556 6.40326 21.2537 6.91765 21.7681C7.43204 22.2824 8.12969 22.5714 8.85714 22.5714C9.58459 22.5714 10.2823 22.2824 10.7966 21.7681C11.311 21.2537 11.6 20.556 11.6 19.8286C11.6 19.1011 11.311 18.4035 10.7966 17.8891C10.2823 17.3747 9.58459 17.0857 8.85714 17.0857ZM18.4571 17.0857C17.7297 17.0857 17.032 17.3747 16.5177 17.8891C16.0033 18.4035 15.7143 19.1011 15.7143 19.8286C15.7143 20.556 16.0033 21.2537 16.5177 21.7681C17.032 22.2824 17.7297 22.5714 18.4571 22.5714C19.1846 22.5714 19.8823 22.2824 20.3966 21.7681C20.911 21.2537 21.2 20.556 21.2 19.8286C21.2 19.1011 20.911 18.4035 20.3966 17.8891C19.8823 17.3747 19.1846 17.0857 18.4571 17.0857ZM8.85714 18.4571C9.22087 18.4571 9.5697 18.6016 9.82689 18.8588C10.0841 19.116 10.2286 19.4648 10.2286 19.8286C10.2286 20.1923 10.0841 20.5411 9.82689 20.7983C9.5697 21.0555 9.22087 21.2 8.85714 21.2C8.49342 21.2 8.14459 21.0555 7.8874 20.7983C7.6302 20.5411 7.48571 20.1923 7.48571 19.8286C7.48571 19.4648 7.6302 19.116 7.8874 18.8588C8.14459 18.6016 8.49342 18.4571 8.85714 18.4571ZM18.4571 18.4571C18.8209 18.4571 19.1697 18.6016 19.4269 18.8588C19.6841 19.116 19.8286 19.4648 19.8286 19.8286C19.8286 20.1923 19.6841 20.5411 19.4269 20.7983C19.1697 21.0555 18.8209 21.2 18.4571 21.2C18.0934 21.2 17.7446 21.0555 17.4874 20.7983C17.2302 20.5411 17.0857 20.1923 17.0857 19.8286C17.0857 19.4648 17.2302 19.116 17.4874 18.8588C17.7446 18.6016 18.0934 18.4571 18.4571 18.4571V18.4571Z" fill="#414B5A"/>
</svg>
