<svg width="24" height="24" viewBox="0 0 24 24" fill="none" xmlns="http://www.w3.org/2000/svg">
<path d="M0 2.18571C0 2.00385 0.0722447 1.82944 0.200841 1.70084C0.329437 1.57224 0.503852 1.5 0.685714 1.5H2.74286C2.89581 1.50004 3.04437 1.55122 3.16489 1.64541C3.28541 1.73959 3.37098 1.87136 3.408 2.01977L3.96343 4.24286H19.8857C19.9864 4.24295 20.0858 4.26522 20.1769 4.30807C20.2681 4.35092 20.3486 4.41332 20.4129 4.49082C20.4772 4.56832 20.5236 4.65902 20.5488 4.75648C20.5741 4.85394 20.5776 4.95578 20.5591 5.05474L18.5019 16.0262C18.4725 16.1833 18.3891 16.3252 18.2662 16.4274C18.1432 16.5296 17.9884 16.5856 17.8286 16.5857H5.48571C5.32585 16.5856 5.17106 16.5296 5.04811 16.4274C4.92515 16.3252 4.84176 16.1833 4.81234 16.0262L2.75657 5.07531L2.208 2.87143H0.685714C0.503852 2.87143 0.329437 2.79918 0.200841 2.67059C0.0722447 2.54199 0 2.36758 0 2.18571ZM4.25417 5.61429L6.05486 15.2143H17.2594L19.0601 5.61429H4.25417ZM6.85714 16.5857C6.12969 16.5857 5.43204 16.8747 4.91765 17.3891C4.40326 17.9035 4.11429 18.6011 4.11429 19.3286C4.11429 20.056 4.40326 20.7537 4.91765 21.2681C5.43204 21.7824 6.12969 22.0714 6.85714 22.0714C7.58459 22.0714 8.28225 21.7824 8.79664 21.2681C9.31102 20.7537 9.6 20.056 9.6 19.3286C9.6 18.6011 9.31102 17.9035 8.79664 17.3891C8.28225 16.8747 7.58459 16.5857 6.85714 16.5857ZM16.4571 16.5857C15.7297 16.5857 15.032 16.8747 14.5177 17.3891C14.0033 17.9035 13.7143 18.6011 13.7143 19.3286C13.7143 20.056 14.0033 20.7537 14.5177 21.2681C15.032 21.7824 15.7297 22.0714 16.4571 22.0714C17.1846 22.0714 17.8823 21.7824 18.3966 21.2681C18.911 20.7537 19.2 20.056 19.2 19.3286C19.2 18.6011 18.911 17.9035 18.3966 17.3891C17.8823 16.8747 17.1846 16.5857 16.4571 16.5857ZM6.85714 17.9571C7.22087 17.9571 7.5697 18.1016 7.82689 18.3588C8.08408 18.616 8.22857 18.9648 8.22857 19.3286C8.22857 19.6923 8.08408 20.0411 7.82689 20.2983C7.5697 20.5555 7.22087 20.7 6.85714 20.7C6.49342 20.7 6.14459 20.5555 5.8874 20.2983C5.6302 20.0411 5.48571 19.6923 5.48571 19.3286C5.48571 18.9648 5.6302 18.616 5.8874 18.3588C6.14459 18.1016 6.49342 17.9571 6.85714 17.9571ZM16.4571 17.9571C16.8209 17.9571 17.1697 18.1016 17.4269 18.3588C17.6841 18.616 17.8286 18.9648 17.8286 19.3286C17.8286 19.6923 17.6841 20.0411 17.4269 20.2983C17.1697 20.5555 16.8209 20.7 16.4571 20.7C16.0934 20.7 15.7446 20.5555 15.4874 20.2983C15.2302 20.0411 15.0857 19.6923 15.0857 19.3286C15.0857 18.9648 15.2302 18.616 15.4874 18.3588C15.7446 18.1016 16.0934 17.9571 16.4571 17.9571V17.9571Z" fill="#C2C8D0"/>
</svg>
