<svg width="24" height="24" viewBox="0 0 24 24" fill="none" xmlns="http://www.w3.org/2000/svg">
<path fill-rule="evenodd" clip-rule="evenodd" d="M12 24C18.6274 24 24 18.6274 24 12C24 5.37258 18.6274 0 12 0C5.37258 0 0 5.37258 0 12C0 18.6274 5.37258 24 12 24Z" fill="#E5E5E5" fill-opacity="0.01"/>
<path fill-rule="evenodd" clip-rule="evenodd" d="M4.39197 20.9952H19.6094C19.7132 20.9952 19.8128 20.9558 19.8861 20.8857C19.9594 20.8156 20.0004 20.7206 20 20.6216C20 16.4097 16.4183 12.9952 12 12.9952C7.58172 12.9952 4 16.4097 4 20.6216C4 20.8279 4.17549 20.9952 4.39197 20.9952ZM18.9333 20H5.06667C5.21998 16.647 8.27878 14 12 14C15.7212 14 18.78 16.647 18.9333 20Z" fill="#414B5A"/>
<path fill-rule="evenodd" clip-rule="evenodd" d="M8 8C8 10.2091 9.79086 12 12 12C14.2071 11.9952 15.9952 10.2071 16 8C16 5.79086 14.2091 4 12 4C9.79086 4 8 5.79086 8 8ZM9 8.00305C8.99832 6.3468 10.3392 5.00253 11.9954 5C13.6533 4.99937 14.9981 6.34214 15 8C15 9.65626 13.6578 10.9992 12.0015 11C10.3453 11.0008 9.00169 9.65931 9 8.00305Z" fill="#414B5A"/>
</svg>
